<?xml version="1.0" encoding="utf-8"?>
<!-- Generator: Adobe Illustrator 23.0.6, SVG Export Plug-In . SVG Version: 6.00 Build 0)  -->
<svg version="1.1" id="Livello_1" xmlns="http://www.w3.org/2000/svg" xmlns:xlink="http://www.w3.org/1999/xlink" x="0px" y="0px"
	 viewBox="0 0 512 512" style="enable-background:new 0 0 512 512;" xml:space="preserve">
<style type="text/css">
	.st0{fill:#7B8FA2;}
	.st1{fill:#33516E;}
</style>
<path class="st0" d="M512,256c0,141.4-114.6,256-256,256S0,397.4,0,256S114.6,0,256,0S512,114.6,512,256z"/>
<g>
	<path class="st1" d="M300.3,241.1c15.5-12.6,25.4-31.8,25.4-53.3c0-37.9-30.8-68.7-68.7-68.7c-37.9,0-68.7,30.8-68.7,68.7
		c0,21.5,9.9,40.7,25.4,53.3c-48.2,17.7-82.6,64-82.6,118.2c0,3.1,1.2,6,3.4,8.1c2.2,2.2,5.1,3.4,8.1,3.4h228.8
		c6.4,0,11.5-5.2,11.5-11.5C382.9,305.2,348.4,258.8,300.3,241.1z M211.3,187.8c0-25.2,20.5-45.7,45.7-45.7s45.7,20.5,45.7,45.7
		s-20.5,45.7-45.7,45.7S211.3,213,211.3,187.8z M154.8,347.9c5.7-51.3,49.4-91.3,102.2-91.3s96.5,40,102.2,91.3H154.8z"/>
	<path class="st1" d="M391.4,176.3h-8.5v-8.5c0-6.4-5.2-11.5-11.5-11.5c-6.4,0-11.5,5.2-11.5,11.5v8.5h-8.5
		c-6.4,0-11.5,5.2-11.5,11.5c0,6.4,5.2,11.5,11.5,11.5h8.5v8.5c0,6.4,5.2,11.5,11.5,11.5c6.4,0,11.5-5.2,11.5-11.5v-8.5h8.5
		c6.4,0,11.5-5.2,11.5-11.5C402.9,181.4,397.8,176.3,391.4,176.3z"/>
</g>
</svg>
